<svg width="38" height="43" viewBox="0 0 38 43" fill="none" xmlns="http://www.w3.org/2000/svg">
<g clip-path="url(#clip0_625_644)">
<path d="M8.48455 16.1189C8.81321 15.8194 8.28569 8.9173 8.45969 7.68181C8.47074 7.61136 8.88778 6.73066 9.00654 6.43374C10.8321 1.89438 14.2928 -0.0657938 19.6812 -0.000370665C20.5539 0.00969443 20.2998 0.477721 20.5401 0.528047C21.0732 0.636247 21.7305 0.460107 22.3629 0.588437C24.4675 1.01872 27.7099 4.30497 28.3755 6.17205C29.461 9.22429 28.6628 12.9282 28.9086 16.1189H34.2915C35.41 16.1189 37.3627 17.923 37.4483 19.0252C36.8269 25.102 38.3349 32.7389 37.4787 38.6269C37.2273 40.3581 35.4156 41.9761 33.4795 42.0214C24.0919 41.4552 13.7459 42.731 4.47431 42.0214C3.83632 41.9736 2.69843 41.7949 2.21786 41.4351C2.03834 41.2992 1.95548 40.9293 1.74282 40.7431C1.43902 40.4764 0.878355 40.2952 0.731976 40.0713C0.549693 39.7995 0.803785 39.2963 0.185126 38.8861C0.701596 32.6432 -0.42801 25.653 0.196173 19.5033C0.417123 17.3368 1.04959 17.5179 2.77852 16.6272C3.0409 16.4913 2.93871 16.1214 2.96633 16.1214H8.48731L8.48455 16.1189ZM25.3209 16.1189V7.69691C25.3209 7.24901 24.0063 5.17812 23.5312 4.8032C21.0566 2.84302 17.6236 2.61655 14.8589 4.20181C13.931 4.73274 12.0722 6.4589 12.0722 7.44528V16.1189H25.3209ZM33.8109 38.6798C34.0319 38.1816 34.1202 37.6531 34.1644 37.1172C34.5207 32.7867 34.6063 24.7749 34.1699 20.5022C34.1258 20.077 34.192 19.6668 33.7667 19.3624L3.76727 19.4882L3.50489 20.2556C3.96337 25.8443 2.93871 32.1274 3.50213 37.628C3.54632 38.0532 3.48004 38.4634 3.90537 38.7679L33.8137 38.6823L33.8109 38.6798Z" fill="#934AD3"/>
<path d="M22.7384 29.3545C22.5285 29.5734 22.0673 29.669 21.8518 29.9231C21.1338 30.7686 19.9323 33.1691 18.5542 33.1138C17.5488 33.0735 16.7396 31.1662 16.2176 30.5673C15.7536 30.0339 15.436 29.9382 14.8256 29.1179C14.6876 28.9317 14.2622 28.9519 14.2622 28.8009C14.2567 27.7164 15.7067 26.8785 16.2093 26.2972C17.2009 25.1548 17.8803 23.0965 19.8136 24.2741C20.1616 24.4855 23.1113 27.6384 23.2549 27.9454C23.5145 28.4964 23.1361 28.9343 22.7356 29.3545H22.7384Z" fill="#934AD3"/>
</g>
<defs>
<clipPath id="clip0_625_644">
<rect width="37.7492" height="42.2432" fill="white"/>
</clipPath>
</defs>
</svg>
